<svg xmlns="http://www.w3.org/2000/svg" xmlns:xlink="http://www.w3.org/1999/xlink" viewBox="0 0 250.104 78.089">
  <defs>
    <style>
      .cls-1 {
        fill: #414141;
      }

      .cls-2 {
        fill: url(#linear-gradient);
      }
    </style>
    <linearGradient id="linear-gradient" x2="1" gradientUnits="objectBoundingBox">
      <stop offset="0" stop-color="#67dcf1"/>
      <stop offset="1" stop-color="#3e81be"/>
    </linearGradient>
  </defs>
  <g id="icon-left-font" transform="translate(-50.896 -112)">
    <g id="_8c48eb00-0122-550f-6005-e402a218543e" data-name="8c48eb00-0122-550f-6005-e402a218543e" transform="translate(127.76 134.914)">
      <path id="Path_4" data-name="Path 4" class="cls-1" d="M37.205,43.938h0a15.121,15.121,0,0,1-5.964,7.674h0a16.632,16.632,0,0,1-9.55,2.794h0a17.957,17.957,0,0,1-9.467-2.419h0A15.9,15.9,0,0,1,6.01,45.106h0A23.521,23.521,0,0,1,3.8,34.554h0A23.587,23.587,0,0,1,6.01,24.045h0a15.857,15.857,0,0,1,6.214-6.923h0A17.711,17.711,0,0,1,21.566,14.7h0A17.538,17.538,0,0,1,30.866,17h0a13.779,13.779,0,0,1,5.63,6.714h0l-4.587,2.127h0a10.32,10.32,0,0,0-3.753-5.046h0a10.716,10.716,0,0,0-6.256-1.71h0a12.872,12.872,0,0,0-6.923,1.835h0a11.964,11.964,0,0,0-4.629,5.338h0a19.555,19.555,0,0,0-1.626,8.3h0q0,7.257,3.461,11.344h0a11.744,11.744,0,0,0,9.509,4.129h0a11.533,11.533,0,0,0,6.756-2h0a10.586,10.586,0,0,0,4.087-5.839h0ZM57.64,24.045h0q6.589,0,10.384,4.045h0q3.753,4,3.753,11.135h0q0,7.131-3.753,11.135h0q-3.8,4.045-10.384,4.045h0q-6.589,0-10.343-4.045h0q-3.8-4-3.8-11.135h0q0-7.131,3.8-11.135h0q3.753-4.045,10.343-4.045Zm0,4.045h0a8.7,8.7,0,0,0-6.965,2.961h0q-2.5,2.961-2.5,8.174h0q0,5.213,2.5,8.174h0A8.7,8.7,0,0,0,57.64,50.36h0A8.7,8.7,0,0,0,64.6,47.4h0q2.5-2.961,2.5-8.174h0q0-5.213-2.5-8.174h0A8.7,8.7,0,0,0,57.64,28.09Zm37.534-4.045h0a12.329,12.329,0,0,1,9.717,4.045h0q3.587,4.087,3.587,11.135h0q0,7.048-3.587,11.135h0a12.329,12.329,0,0,1-9.717,4.045h0a11.86,11.86,0,0,1-6.047-1.543h0a9.823,9.823,0,0,1-3.92-4.129h0l-.292,5.088H80.828V11.2H85.5V29.175h0a9.9,9.9,0,0,1,3.92-3.712h0a11.618,11.618,0,0,1,5.755-1.418Zm-.5,26.274h0a8.217,8.217,0,0,0,6.714-3h0a12.528,12.528,0,0,0,2.419-8.091h0a12.528,12.528,0,0,0-2.419-8.091h0a8.217,8.217,0,0,0-6.714-3h0a8.394,8.394,0,0,0-6.714,2.919h0a11.77,11.77,0,0,0-2.461,7.84h0v.667h0a11.77,11.77,0,0,0,2.461,7.84h0s3.906,2.919,6.714,2.919Zm35.24-26.274h0q6.589,0,10.384,4.045h0q3.753,4,3.753,11.135h0q0,7.131-3.753,11.135h0q-3.8,4.045-10.384,4.045h0q-6.589,0-10.343-4.045h0q-3.8-4-3.8-11.135h0q0-7.131,3.8-11.135h0q3.753-4.045,10.343-4.045Zm0,4.045h0a8.576,8.576,0,0,0-6.923,2.961h0q-2.544,2.961-2.544,8.174h0q0,5.213,2.544,8.174h0a8.576,8.576,0,0,0,6.923,2.961h0a8.624,8.624,0,0,0,6.965-2.961h0q2.5-2.961,2.5-8.174h0q0-5.213-2.5-8.174h0a8.624,8.624,0,0,0-6.965-2.961Zm47.126-3.461L163.319,58.743h0a15.209,15.209,0,0,1-3.8,5.922h0a8.275,8.275,0,0,1-5.422,1.71h0a10.3,10.3,0,0,1-3.712-.584h0a7.345,7.345,0,0,1-2.711-1.877h0l1.626-3.962h0a5.52,5.52,0,0,0,4.713,2.335h0a4.812,4.812,0,0,0,3.044-1.043h0a8.247,8.247,0,0,0,2.294-3.67h0l1.5-3.8L148.681,24.629h5.3l7.3,19.017,1.793,5.213,2.127-5.8,6.84-18.433Z" transform="translate(-3.8 -11.2)"/>
    </g>
    <g id="e14dc6ca-5714-0add-3746-b4467f1826ae" transform="translate(50.896 112)">
      <g id="Group_2" data-name="Group 2" transform="translate(0 0)">
        <path id="Path_5" data-name="Path 5" class="cls-2" d="M49.013,38.605l1.356-1.356a.839.839,0,1,0-1.186-1.186l-1.356,1.356L14.609,4.116,11.9,1.4a.819.819,0,0,0-1.186,0l-3.22,3.22a.875.875,0,0,0-.339.678.769.769,0,0,0,.254.593L9.524,8.014,5.287,12.251a.819.819,0,0,0,0,1.186L41.132,49.282l-4.661,4.661a.819.819,0,0,0,0,1.186l9.406,9.406a10.38,10.38,0,0,1-2.2,3.22c-.085.085-.085.169-.169.254h0a6.6,6.6,0,0,0,.085,9.152l.254.254H19.269a.847.847,0,0,0,0,1.695h28.9a6.471,6.471,0,0,0,4.661-1.949l.085-.085a24.4,24.4,0,0,0,0-34.574ZM10.8,6.828,9.27,5.3,11.3,3.269l1.525,1.525Zm3.22-.847L51.131,43.1,44.267,49.96,7.067,12.844ZM38.251,54.536l4.067-4.067,1.271,1.271A12.541,12.541,0,0,1,45.454,54.2l-2.881-.339a.8.8,0,0,0-.932.763.841.841,0,0,0,.763.932l3.9.508a11.085,11.085,0,0,1,.593,3.729,12.6,12.6,0,0,1-.424,3.051ZM51.724,75.89l-.085.085a4.8,4.8,0,0,1-3.474,1.441,4.873,4.873,0,0,1-3.474-8.3c.085-.085.085-.169.169-.254h0a13.047,13.047,0,0,0,3.729-9.067,12.646,12.646,0,0,0-3.22-8.559l6.949-6.949A22.834,22.834,0,0,1,51.724,75.89Z" transform="translate(-5.033 -1.15)"/>
        <path id="Path_6" data-name="Path 6" class="cls-2" d="M38.524,35.562a.819.819,0,0,0,0-1.186L9.12,4.971A.839.839,0,0,0,7.933,6.157l29.4,29.4a.819.819,0,0,0,1.186,0Z" transform="translate(0.117 5.791)"/>
        <path id="Path_7" data-name="Path 7" class="cls-2" d="M22.551,17.654A.833.833,0,0,0,22.3,18.84,17.3,17.3,0,0,1,19.754,40.11a.819.819,0,0,0,0,1.186.819.819,0,0,0,1.186,0,18.982,18.982,0,0,0,2.8-23.388A.912.912,0,0,0,22.551,17.654Z" transform="translate(23.124 30.732)"/>
      </g>
    </g>
  </g>
</svg>
