<svg xmlns="http://www.w3.org/2000/svg" xmlns:xlink="http://www.w3.org/1999/xlink" viewBox="0 0 799.039 1009.303">
  <defs>
    <style>
      .cls-1 {
        fill: none;
      }

      .cls-2 {
        fill: #fff;
      }

      .cls-3 {
        clip-path: url(#clip-path);
      }

      .cls-4 {
        fill: url(#linear-gradient);
      }

      .cls-5 {
        fill: #d4e3fc;
        opacity: 0.2;
      }

      .cls-6, .cls-7 {
        fill: #92e8ff;
      }

      .cls-6 {
        opacity: 0.5;
      }

      .cls-30, .cls-8 {
        opacity: 0.1;
      }

      .cls-9 {
        fill: #f6feff;
      }

      .cls-10 {
        fill: #242893;
      }

      .cls-11 {
        fill: url(#linear-gradient-2);
      }

      .cls-12 {
        fill: #0d85d6;
      }

      .cls-13 {
        fill: url(#linear-gradient-3);
      }

      .cls-14 {
        fill: url(#linear-gradient-4);
      }

      .cls-15 {
        fill: url(#linear-gradient-5);
      }

      .cls-16 {
        fill: url(#linear-gradient-6);
      }

      .cls-17 {
        fill: url(#linear-gradient-7);
      }

      .cls-18 {
        fill: #171d6d;
      }

      .cls-19 {
        fill: url(#linear-gradient-8);
      }

      .cls-20 {
        fill: url(#linear-gradient-9);
      }

      .cls-21 {
        fill: url(#linear-gradient-10);
      }

      .cls-22 {
        fill: url(#linear-gradient-11);
      }

      .cls-23 {
        fill: url(#linear-gradient-12);
      }

      .cls-24 {
        fill: url(#linear-gradient-13);
      }

      .cls-25 {
        fill: #dd8583;
      }

      .cls-26 {
        fill: #f8b7b0;
      }

      .cls-27 {
        fill: url(#linear-gradient-14);
      }

      .cls-28 {
        fill: url(#linear-gradient-15);
      }

      .cls-29 {
        clip-path: url(#clip-path-2);
      }

      .cls-30 {
        fill: #ff4a1a;
      }

      .cls-31 {
        fill: url(#linear-gradient-16);
      }

      .cls-32 {
        clip-path: url(#clip-path-3);
      }

      .cls-33 {
        fill: url(#linear-gradient-18);
      }
    </style>
    <clipPath id="clip-path">
      <path id="Path_2115" data-name="Path 2115" class="cls-1" d="M279.44,378.89" transform="translate(-279.44 -378.89)"/>
    </clipPath>
    <linearGradient id="linear-gradient" x1="-0.446" y1="-0.187" x2="0.346" y2="0.323" gradientUnits="objectBoundingBox">
      <stop offset="0" stop-color="blue"/>
      <stop offset="1" stop-color="#48a5f9"/>
    </linearGradient>
    <linearGradient id="linear-gradient-2" x1="0.5" y1="0.964" x2="0.5" y2="0.301" gradientUnits="objectBoundingBox">
      <stop offset="0.28" stop-color="#5213ba"/>
      <stop offset="1" stop-color="#4750b7"/>
    </linearGradient>
    <linearGradient id="linear-gradient-3" x1="0.5" y1="0.964" x2="0.5" y2="0.301" xlink:href="#linear-gradient-2"/>
    <linearGradient id="linear-gradient-4" x1="-1.598" y1="-2.241" x2="0.687" y2="0.745" xlink:href="#linear-gradient-2"/>
    <linearGradient id="linear-gradient-5" x1="0.344" y1="-6.796" x2="0.59" y2="4.704" xlink:href="#linear-gradient-2"/>
    <linearGradient id="linear-gradient-6" x1="0.186" y1="-1.277" x2="0.762" y2="1.688" xlink:href="#linear-gradient-2"/>
    <linearGradient id="linear-gradient-7" x1="0.084" y1="-1.481" x2="0.66" y2="1.484" xlink:href="#linear-gradient-2"/>
    <linearGradient id="linear-gradient-8" x1="0.843" y1="3.102" x2="0.378" y2="-0.395" xlink:href="#linear-gradient-2"/>
    <linearGradient id="linear-gradient-9" x1="1.057" y1="1.794" x2="-0.575" y2="-1.652" xlink:href="#linear-gradient-2"/>
    <linearGradient id="linear-gradient-10" x1="1.444" y1="4.796" x2="-1.155" y2="-6.776" xlink:href="#linear-gradient-2"/>
    <linearGradient id="linear-gradient-11" x1="1.823" y1="5.896" x2="-0.619" y2="-3.891" xlink:href="#linear-gradient-2"/>
    <linearGradient id="linear-gradient-12" x1="1.011" y1="32.351" x2="0.434" y2="-3.615" xlink:href="#linear-gradient-2"/>
    <linearGradient id="linear-gradient-13" x1="2.244" y1="21.635" x2="-0.512" y2="-11.62" xlink:href="#linear-gradient-2"/>
    <linearGradient id="linear-gradient-14" x1="0.5" y1="2.106" x2="0.5" y2="0.695" xlink:href="#linear-gradient-2"/>
    <linearGradient id="linear-gradient-15" x1="-3.071" y1="2.106" x2="-3.071" y2="0.695" xlink:href="#linear-gradient-2"/>
    <clipPath id="clip-path-2">
      <path id="Path_2153" data-name="Path 2153" class="cls-1" d="M316.182,705.648a62.606,62.606,0,0,0-24.256,4.407,110.569,110.569,0,0,0,8.343-10.462c7.67,5.584,23.55-1.48,26.106-4.677,3.9-5.147,1.48-18.5,0-29.067a137.586,137.586,0,0,0-3.936-20.185c-1.514-6.729-7.469-12.65-19.782-13.087a11.878,11.878,0,0,0-7.2,2.523,47.536,47.536,0,0,0-3.028-10.7c-1.985-5.518-8.074-8.983-19.681-9.319-6.224-.168-12.347,6.257-18.133,15.341-1.985-5.955-8.411-9.319-20.724-8.781-5.618.236-10.8,5.82-15.576,13.861a30.075,30.075,0,0,0-14.668-4.374c-9.924-.807-20.589,15.105-30.278,31.994-15.812,13.457-28.663,35.728-47.1,68.664-23.953,9.487-35.19,31.725-47.772,48.781C60.265,805.262,41.93,829.787,41.93,829.787H220.84s2.927-17.157,18.772-51.3a15.778,15.778,0,0,0-.4-13.02c16.148-1.514,33.407-5.248,45.081-13.625,27.721-19.95,63.281-12.582,62.844-28.495C346.561,704.369,333.71,705.378,316.182,705.648Z" transform="translate(-41.93 -615.079)"/>
    </clipPath>
    <linearGradient id="linear-gradient-16" x1="0.5" y1="0.626" x2="0.5" y2="0.225" gradientUnits="objectBoundingBox">
      <stop offset="0" stop-color="blue" stop-opacity="0"/>
      <stop offset="1" stop-color="#48a5f9"/>
    </linearGradient>
    <clipPath id="clip-path-3">
      <path id="Path_2156" data-name="Path 2156" class="cls-1" d="M451.49,785.978c-12.885-17.46-26.746-39.967-53.828-49.488-8.579-20.421-15.812-36.435-23.819-48.815a3.35,3.35,0,0,0-.37-1.211c-7.973-22.944-17.46-57.562-31.489-58.941-9.42-.908-15.408.707-18.772,4.138-4-9.891-8.814-17.191-14.9-18.2-13.894-2.288-20.757,1.447-22.507,8.915v.74a80.91,80.91,0,0,0-3.162,9.083,12.985,12.985,0,0,0-8.007-4.542c-11.539-1.043-18,1.682-20.656,6.93a30.441,30.441,0,0,0-2.187,4.374c-3.7-5.753-7.738-9.588-12.246-10.093a24.29,24.29,0,0,0-14.466,2.624,13.481,13.481,0,0,0-2.321,1.177c-4.777,3.163-7.738,13.793-10.463,22.507s-7.031,19.849-4.407,23.987c3.364,5.315,12.481,7.132,19.883,4.508,5.181,11.337,11.943,23.045,16.518,27.553l.942,1.514c-20.354-3.869-21.195-8.512-40.808-8.512-17.494,0-30.278-.942-30.749,18.032-.3,15.913,35.19,8.242,63.079,27.957,13.659,9.655,34.921,12.952,53.088,13.76,1.783,1.682,3.364,3.364,5.181,5.046a24.424,24.424,0,0,0,.673,16.821c15.846,34.147,13.726,49.219,13.726,49.219H482.205A382.456,382.456,0,0,0,451.49,785.978Z" transform="translate(-173.669 -612.791)"/>
    </clipPath>
    <linearGradient id="linear-gradient-18" x1="1.625" y1="2.203" x2="0.334" y2="0.25" xlink:href="#linear-gradient-2"/>
  </defs>
  <g id="Asset_2" data-name="Asset 2" transform="translate(-41.93 -378.89)">
    <g id="Layer_2" data-name="Layer 2" transform="translate(41.93 378.89)">
      <g id="Objects">
        <path id="Path_2111" data-name="Path 2111" class="cls-2" d="M279.44,378.89" transform="translate(519.599 -378.89)"/>
        <g id="Group_5" data-name="Group 5" class="cls-3" transform="translate(799.039)">
          <path id="Path_2112" data-name="Path 2112" class="cls-4" d="M140.79,639.44c10.51,5.73,51,27.81,100.1,16.36,10.44-2.43,59.54-13.88,78.11-54.56,24.57-53.83-30.55-101.33-14.28-160.42,14-50.81,82.66-33.16,104.73-87.07C421,325.61,418.29,287,402,263.65,351.11,190.79,114.17,190.52,47.39,337-1.22,443.58,56.12,593.27,140.79,639.44Z" transform="translate(-279.44 -378.89)"/>
          <path id="Path_2113" data-name="Path 2113" class="cls-5" d="M32.42,368c11.87-22.6,36.12-53.66,84.21-73.36l.19.46-.19-.46c47-19.23,110.38-16.41,169.66,7.55,62.5,25.26,111.32,70.32,134,123.61,16.71,39.32,19.9,83.1,9.48,130.1-9,40.77-28.15,82.18-55.26,119.76C330.23,737,273.15,776.8,230.38,776.81c-1.8,0-3.56-.07-5.31-.21-29.34-2.39-62.1-26.66-76.2-56.47-13.32-28.17-4.33-53.53,4.37-78.06,8.63-24.33,16.77-47.3,2-70.63-16.52-26.08-42.7-36.61-68-46.8m.37-.93c25.47,10.25,51.8,20.84,68.5,47.19,15,23.74,6.81,46.94-1.9,71.5-8.63,24.34-17.55,49.51-4.41,77.3,14,29.51,46.36,53.54,75.38,55.9,21.16,1.71,46.65-7.15,73.76-25.65,26.73-18.24,52.58-44.13,74.75-74.85,59.68-82.7,76.75-175.74,45.68-248.88-22.54-53-71.17-97.91-133.42-123.07C252.83,289.76,218.47,283,186.42,283c-25.15,0-48.87,4.17-69.42,12.58C69.19,315.16,45.1,346,33.3,368.48" transform="translate(-279.44 -378.89)"/>
          <path id="Path_2114" data-name="Path 2114" class="cls-5" d="M275.46,494.81c-1.8,0-3.56-.07-5.31-.21-29.34-2.39-62.1-26.66-76.2-56.47-13.32-28.17-4.33-53.53,4.37-78.06,8.63-24.32,16.77-47.3,2-70.63-16.52-26.08-42.7-36.61-68-46.8-28.15-11.32-54.73-22-67.65-52.45C52.57,161.75,57.14,124.76,77.5,86c11.87-22.6,36.12-53.67,84.21-73.36h0c47-19.23,110.38-16.41,169.66,7.55,62.5,25.26,111.32,70.32,134,123.61,16.71,39.32,19.9,83.1,9.48,130.1-9,40.77-28.15,82.18-55.27,119.76C375.31,455,318.23,494.8,275.46,494.81ZM231.5,1c-25.15,0-48.87,4.17-69.42,12.58-47.8,19.58-71.9,50.42-83.7,72.9C58.17,125,53.61,161.64,65.56,189.8c12.75,30,39.15,40.66,67.1,51.91,25.47,10.25,51.8,20.84,68.5,47.19,15,23.74,6.81,46.94-1.9,71.5-8.63,24.34-17.55,49.51-4.41,77.3,14,29.51,46.36,53.54,75.38,55.9,21.16,1.72,46.65-7.15,73.76-25.65,26.73-18.24,52.58-44.13,74.75-74.85,59.68-82.7,76.75-175.74,45.68-248.88C441.88,91.16,393.25,46.3,331,21.14,297.92,7.76,263.55,1,231.5,1Z" transform="translate(-279.44 -378.89)"/>
        </g>
        <rect id="Rectangle_609" data-name="Rectangle 609" class="cls-6" width="85.754" height="8.612" transform="translate(423.456 614.578)"/>
        <rect id="Rectangle_610" data-name="Rectangle 610" class="cls-6" width="56.317" height="8.612" transform="translate(418.578 628.808)"/>
        <rect id="Rectangle_611" data-name="Rectangle 611" class="cls-6" width="20.959" height="8.612" transform="translate(488.251 628.808)"/>
        <rect id="Rectangle_612" data-name="Rectangle 612" class="cls-6" width="47.638" height="8.612" transform="translate(461.573 643.073)"/>
        <rect id="Rectangle_613" data-name="Rectangle 613" class="cls-7" width="28.596" height="8.612" transform="translate(480.614 657.303)"/>
        <rect id="Rectangle_614" data-name="Rectangle 614" class="cls-6" width="38.823" height="8.612" transform="translate(432.035 657.303)"/>
        <rect id="Rectangle_615" data-name="Rectangle 615" class="cls-6" width="97.193" height="8.612" transform="translate(412.017 671.568)"/>
        <rect id="Rectangle_616" data-name="Rectangle 616" class="cls-6" width="57.158" height="8.612" transform="translate(452.052 685.798)"/>
        <rect id="Rectangle_617" data-name="Rectangle 617" class="cls-6" width="20.959" height="8.612" transform="translate(488.251 700.063)"/>
        <rect id="Rectangle_618" data-name="Rectangle 618" class="cls-6" width="32.465" height="8.612" transform="translate(418.578 643.073)"/>
        <rect id="Rectangle_619" data-name="Rectangle 619" class="cls-6" width="20.959" height="8.612" transform="translate(433.919 771.284)"/>
        <rect id="Rectangle_620" data-name="Rectangle 620" class="cls-6" width="20.959" height="8.612" transform="translate(401.521 771.284)"/>
        <rect id="Rectangle_621" data-name="Rectangle 621" class="cls-6" width="66.713" height="8.612" transform="translate(442.497 714.294)"/>
        <rect id="Rectangle_622" data-name="Rectangle 622" class="cls-6" width="52.516" height="8.612" transform="translate(418.578 728.558)"/>
        <rect id="Rectangle_623" data-name="Rectangle 623" class="cls-6" width="28.596" height="8.612" transform="translate(480.614 728.558)"/>
        <rect id="Rectangle_624" data-name="Rectangle 624" class="cls-6" width="47.638" height="8.612" transform="translate(428.199 700.063)"/>
        <rect id="Rectangle_625" data-name="Rectangle 625" class="cls-6" width="47.638" height="8.612" transform="translate(461.573 742.789)"/>
        <rect id="Rectangle_626" data-name="Rectangle 626" class="cls-6" width="20.959" height="8.612" transform="translate(488.251 757.019)"/>
        <rect id="Rectangle_627" data-name="Rectangle 627" class="cls-7" width="20.959" height="8.612" transform="translate(432.035 742.789)"/>
        <rect id="Rectangle_628" data-name="Rectangle 628" class="cls-7" width="47.638" height="8.612" transform="translate(461.573 771.284)"/>
        <rect id="Rectangle_629" data-name="Rectangle 629" class="cls-6" width="56.048" height="8.612" transform="translate(423.456 757.019)"/>
        <rect id="Rectangle_630" data-name="Rectangle 630" class="cls-7" width="97.193" height="8.612" transform="translate(412.017 785.514)"/>
        <rect id="Rectangle_631" data-name="Rectangle 631" class="cls-6" width="26.678" height="8.612" transform="translate(482.532 799.779)"/>
        <rect id="Rectangle_632" data-name="Rectangle 632" class="cls-6" width="50.228" height="8.612" transform="translate(420.596 799.779)"/>
        <rect id="Rectangle_633" data-name="Rectangle 633" class="cls-6" width="54.164" height="8.612" transform="translate(393.447 814.009)"/>
        <rect id="Rectangle_634" data-name="Rectangle 634" class="cls-6" width="51.708" height="8.612" transform="translate(457.502 814.009)"/>
        <rect id="Rectangle_635" data-name="Rectangle 635" class="cls-6" width="72.432" height="8.612" transform="translate(436.778 828.274)"/>
        <rect id="Rectangle_636" data-name="Rectangle 636" class="cls-6" width="50.127" height="8.612" transform="translate(246.43 828.274)"/>
        <rect id="Rectangle_637" data-name="Rectangle 637" class="cls-6" width="20.959" height="8.612" transform="translate(246.43 814.009)"/>
        <rect id="Rectangle_638" data-name="Rectangle 638" class="cls-6" width="47.638" height="8.612" transform="translate(246.43 799.779)"/>
        <rect id="Rectangle_639" data-name="Rectangle 639" class="cls-6" width="28.596" height="8.612" transform="translate(246.43 785.514)"/>
        <rect id="Rectangle_640" data-name="Rectangle 640" class="cls-6" width="56.822" height="8.612" transform="translate(246.43 771.284)"/>
        <rect id="Rectangle_641" data-name="Rectangle 641" class="cls-6" width="72.432" height="8.612" transform="translate(246.43 757.019)"/>
        <rect id="Rectangle_642" data-name="Rectangle 642" class="cls-7" width="20.959" height="8.612" transform="translate(246.43 742.789)"/>
        <rect id="Rectangle_643" data-name="Rectangle 643" class="cls-6" width="38.991" height="8.612" transform="translate(246.43 728.558)"/>
        <rect id="Rectangle_644" data-name="Rectangle 644" class="cls-6" width="47.638" height="8.612" transform="translate(246.43 714.294)"/>
        <rect id="Rectangle_645" data-name="Rectangle 645" class="cls-6" width="47.638" height="8.612" transform="translate(246.43 700.063)"/>
        <rect id="Rectangle_646" data-name="Rectangle 646" class="cls-6" width="20.959" height="8.612" transform="translate(246.43 685.798)"/>
        <rect id="Rectangle_647" data-name="Rectangle 647" class="cls-6" width="47.638" height="8.612" transform="translate(246.43 671.568)"/>
        <rect id="Rectangle_648" data-name="Rectangle 648" class="cls-6" width="56.822" height="8.612" transform="translate(246.43 657.303)"/>
        <rect id="Rectangle_649" data-name="Rectangle 649" class="cls-6" width="26.678" height="8.612" transform="translate(246.43 643.073)"/>
        <rect id="Rectangle_650" data-name="Rectangle 650" class="cls-6" width="51.708" height="8.612" transform="translate(246.43 628.808)"/>
        <rect id="Rectangle_651" data-name="Rectangle 651" class="cls-6" width="42.322" height="8.612" transform="translate(246.43 614.578)"/>
        <g id="Group_6" data-name="Group 6" class="cls-8" transform="translate(263.688 50.127)">
          <rect id="Rectangle_652" data-name="Rectangle 652" class="cls-6" width="168.279" height="16.888" transform="translate(347.323)"/>
          <rect id="Rectangle_653" data-name="Rectangle 653" class="cls-6" width="110.515" height="16.888" transform="translate(337.802 27.957)"/>
          <rect id="Rectangle_654" data-name="Rectangle 654" class="cls-6" width="41.145" height="16.888" transform="translate(474.457 27.957)"/>
          <rect id="Rectangle_655" data-name="Rectangle 655" class="cls-6" width="93.492" height="16.888" transform="translate(422.11 55.88)"/>
          <rect id="Rectangle_656" data-name="Rectangle 656" class="cls-7" width="56.082" height="16.888" transform="translate(459.52 83.837)"/>
          <rect id="Rectangle_657" data-name="Rectangle 657" class="cls-6" width="76.133" height="16.888" transform="translate(364.144 83.837)"/>
          <rect id="Rectangle_658" data-name="Rectangle 658" class="cls-6" width="190.718" height="16.888" transform="translate(324.884 111.793)"/>
          <rect id="Rectangle_659" data-name="Rectangle 659" class="cls-6" width="112.163" height="16.888" transform="translate(403.439 139.75)"/>
          <rect id="Rectangle_660" data-name="Rectangle 660" class="cls-6" width="41.145" height="16.888" transform="translate(474.457 167.707)"/>
          <rect id="Rectangle_661" data-name="Rectangle 661" class="cls-6" width="63.685" height="16.888" transform="translate(337.802 55.88)"/>
          <rect id="Rectangle_662" data-name="Rectangle 662" class="cls-6" width="41.145" height="16.888" transform="translate(367.912 307.457)"/>
          <rect id="Rectangle_663" data-name="Rectangle 663" class="cls-6" width="41.145" height="16.888" transform="translate(304.328 307.457)"/>
          <rect id="Rectangle_664" data-name="Rectangle 664" class="cls-6" width="130.869" height="16.888" transform="translate(384.733 195.664)"/>
          <rect id="Rectangle_665" data-name="Rectangle 665" class="cls-6" width="103.013" height="16.888" transform="translate(337.802 223.587)"/>
          <rect id="Rectangle_666" data-name="Rectangle 666" class="cls-6" width="56.082" height="16.888" transform="translate(459.52 223.587)"/>
          <rect id="Rectangle_667" data-name="Rectangle 667" class="cls-6" width="93.492" height="16.888" transform="translate(356.676 167.707)"/>
          <rect id="Rectangle_668" data-name="Rectangle 668" class="cls-6" width="93.492" height="16.888" transform="translate(422.11 251.544)"/>
          <rect id="Rectangle_669" data-name="Rectangle 669" class="cls-6" width="41.145" height="16.888" transform="translate(474.457 279.5)"/>
          <rect id="Rectangle_670" data-name="Rectangle 670" class="cls-7" width="41.145" height="16.888" transform="translate(364.144 251.544)"/>
          <rect id="Rectangle_671" data-name="Rectangle 671" class="cls-7" width="93.492" height="16.888" transform="translate(422.11 307.457)"/>
          <rect id="Rectangle_672" data-name="Rectangle 672" class="cls-6" width="110.01" height="16.888" transform="translate(347.323 279.5)"/>
          <rect id="Rectangle_673" data-name="Rectangle 673" class="cls-7" width="190.718" height="16.888" transform="translate(324.884 335.414)"/>
          <rect id="Rectangle_674" data-name="Rectangle 674" class="cls-6" width="52.347" height="16.888" transform="translate(463.255 363.337)"/>
          <rect id="Rectangle_675" data-name="Rectangle 675" class="cls-6" width="98.572" height="16.888" transform="translate(341.739 363.337)"/>
          <rect id="Rectangle_676" data-name="Rectangle 676" class="cls-6" width="106.242" height="16.888" transform="translate(288.483 391.294)"/>
          <rect id="Rectangle_677" data-name="Rectangle 677" class="cls-6" width="101.465" height="16.888" transform="translate(414.137 391.294)"/>
          <rect id="Rectangle_678" data-name="Rectangle 678" class="cls-6" width="142.105" height="16.888" transform="translate(373.497 419.25)"/>
          <rect id="Rectangle_679" data-name="Rectangle 679" class="cls-6" width="98.37" height="16.888" transform="translate(0 419.25)"/>
          <rect id="Rectangle_680" data-name="Rectangle 680" class="cls-6" width="41.145" height="16.888" transform="translate(0 391.294)"/>
          <rect id="Rectangle_681" data-name="Rectangle 681" class="cls-6" width="93.492" height="16.888" transform="translate(0 363.337)"/>
          <rect id="Rectangle_682" data-name="Rectangle 682" class="cls-6" width="56.082" height="16.888" transform="translate(0 335.414)"/>
          <rect id="Rectangle_683" data-name="Rectangle 683" class="cls-6" width="111.491" height="16.888" transform="translate(0 307.457)"/>
          <rect id="Rectangle_684" data-name="Rectangle 684" class="cls-6" width="142.105" height="16.888" transform="translate(0 279.5)"/>
          <rect id="Rectangle_685" data-name="Rectangle 685" class="cls-7" width="41.145" height="16.888" transform="translate(0 251.544)"/>
          <rect id="Rectangle_686" data-name="Rectangle 686" class="cls-6" width="76.503" height="16.888" transform="translate(0 223.587)"/>
          <rect id="Rectangle_687" data-name="Rectangle 687" class="cls-6" width="93.492" height="16.888" transform="translate(0 195.664)"/>
          <rect id="Rectangle_688" data-name="Rectangle 688" class="cls-6" width="93.492" height="16.888" transform="translate(0 167.707)"/>
          <rect id="Rectangle_689" data-name="Rectangle 689" class="cls-6" width="41.145" height="16.888" transform="translate(0 139.75)"/>
          <rect id="Rectangle_690" data-name="Rectangle 690" class="cls-6" width="93.492" height="16.888" transform="translate(0 111.793)"/>
          <rect id="Rectangle_691" data-name="Rectangle 691" class="cls-6" width="111.491" height="16.888" transform="translate(0 83.837)"/>
          <rect id="Rectangle_692" data-name="Rectangle 692" class="cls-6" width="52.347" height="16.888" transform="translate(0 55.88)"/>
          <rect id="Rectangle_693" data-name="Rectangle 693" class="cls-6" width="101.465" height="16.888" transform="translate(0 27.957)"/>
          <rect id="Rectangle_694" data-name="Rectangle 694" class="cls-6" width="83.063" height="16.888"/>
        </g>
        <path id="Path_2116" data-name="Path 2116" class="cls-9" d="M699.427,879.311H87.137A7.132,7.132,0,0,1,80,872.582L62.443,482.331a6.93,6.93,0,0,1,6.728-7.435L715.1,474.19a7,7,0,0,1,6.93,7.435L706.458,872.448A7.1,7.1,0,0,1,699.427,879.311Z" transform="translate(6.524 -153.579)"/>
        <path id="Path_2117" data-name="Path 2117" class="cls-10" d="M699.427,881.061H87.137A7.132,7.132,0,0,1,80,874.332L62.443,484.082a6.93,6.93,0,0,1,6.728-7.435L715.1,475.94a7,7,0,0,1,6.93,7.435L706.458,874.2A7.1,7.1,0,0,1,699.427,881.061Z" transform="translate(6.524 -149.441)"/>
        <path id="Path_2118" data-name="Path 2118" class="cls-11" d="M688.663,494.965,675.811,838.117a12.75,12.75,0,0,1-12.75,12.078H95.65a12.784,12.784,0,0,1-12.784-12.044L68.3,495.571a12.448,12.448,0,0,1,12.313-13.255l595.469-.605a12.515,12.515,0,0,1,12.582,13.255Z" transform="translate(20.349 -135.8)"/>
        <g id="Group_7" data-name="Group 7" transform="translate(178.069 487.78)">
          <rect id="Rectangle_695" data-name="Rectangle 695" class="cls-12" width="98.942" height="201.887"/>
        </g>
        <rect id="Rectangle_696" data-name="Rectangle 696" class="cls-7" width="98.942" height="13.558" transform="translate(178.069 676.109)"/>
        <rect id="Rectangle_697" data-name="Rectangle 697" class="cls-7" width="18.066" height="8.041" transform="translate(194.621 632.744)"/>
        <rect id="Rectangle_698" data-name="Rectangle 698" class="cls-7" width="5.215" height="8.041" transform="translate(194.621 619.456)"/>
        <rect id="Rectangle_699" data-name="Rectangle 699" class="cls-7" width="9.723" height="8.041" transform="translate(194.621 606.133)"/>
        <rect id="Rectangle_700" data-name="Rectangle 700" class="cls-7" width="11.876" height="8.041" transform="translate(194.621 592.845)"/>
        <rect id="Rectangle_701" data-name="Rectangle 701" class="cls-7" width="11.876" height="8.041" transform="translate(194.621 579.522)"/>
        <rect id="Rectangle_702" data-name="Rectangle 702" class="cls-7" width="5.215" height="8.041" transform="translate(194.621 566.234)"/>
        <rect id="Rectangle_703" data-name="Rectangle 703" class="cls-7" width="11.876" height="8.041" transform="translate(194.621 552.911)"/>
        <rect id="Rectangle_704" data-name="Rectangle 704" class="cls-7" width="14.163" height="8.041" transform="translate(194.621 539.623)"/>
        <rect id="Rectangle_705" data-name="Rectangle 705" class="cls-7" width="6.661" height="8.041" transform="translate(194.621 526.3)"/>
        <rect id="Rectangle_706" data-name="Rectangle 706" class="cls-7" width="12.885" height="8.041" transform="translate(194.621 513.012)"/>
        <rect id="Rectangle_707" data-name="Rectangle 707" class="cls-7" width="5.215" height="8.041" transform="translate(242.46 566.234)"/>
        <rect id="Rectangle_708" data-name="Rectangle 708" class="cls-7" width="12.885" height="8.041" transform="translate(234.79 513.012)"/>
        <rect id="Rectangle_709" data-name="Rectangle 709" class="cls-7" width="10.564" height="8.041" transform="translate(194.621 499.723)"/>
        <path id="Path_2119" data-name="Path 2119" class="cls-7" d="M91.638,895.091a8.848,8.848,0,0,1-8.814-8.175L59.611,496.4a8.848,8.848,0,0,1,2.321-6.729,8.411,8.411,0,0,1,6.089-2.725L714.963,476.85a8.746,8.746,0,0,1,6.19,2.523,8.882,8.882,0,0,1,2.557,6.527L713.651,877.7a8.814,8.814,0,0,1-8.68,8.444l-613.2,8.949ZM715.131,480.383h0L68.19,490.475a5.079,5.079,0,0,0-3.667,1.648,5.516,5.516,0,0,0-1.413,4.138l23.213,390.52a5.45,5.45,0,0,0,5.45,5.013h0l613.333-8.848a5.417,5.417,0,0,0,5.181-5.248L720.379,486a5.551,5.551,0,0,0-1.581-4.1,5.146,5.146,0,0,0-3.667-1.514Z" transform="translate(-0.198 -147.29)"/>
        <rect id="Rectangle_710" data-name="Rectangle 710" class="cls-6" width="91.305" height="12.986" transform="translate(113.24 205.521)"/>
        <rect id="Rectangle_711" data-name="Rectangle 711" class="cls-6" width="91.305" height="12.986" transform="translate(149.742 227.018)"/>
        <rect id="Rectangle_712" data-name="Rectangle 712" class="cls-7" width="22.305" height="12.986" transform="translate(113.24 227.018)"/>
        <rect id="Rectangle_713" data-name="Rectangle 713" class="cls-6" width="50.733" height="12.986" transform="translate(113.24 248.482)"/>
        <rect id="Rectangle_714" data-name="Rectangle 714" class="cls-6" width="30.446" height="12.986" transform="translate(113.24 269.98)"/>
        <rect id="Rectangle_715" data-name="Rectangle 715" class="cls-7" width="35.223" height="12.986" transform="translate(154.082 269.98)"/>
        <rect id="Rectangle_716" data-name="Rectangle 716" class="cls-6" width="103.484" height="12.986" transform="translate(113.24 291.477)"/>
        <rect id="Rectangle_717" data-name="Rectangle 717" class="cls-6" width="76.94" height="12.986" transform="translate(113.24 312.941)"/>
        <rect id="Rectangle_718" data-name="Rectangle 718" class="cls-6" width="22.305" height="12.986" transform="translate(113.24 334.438)"/>
        <rect id="Rectangle_719" data-name="Rectangle 719" class="cls-6" width="22.338" height="12.986" transform="translate(201.517 269.98)"/>
        <rect id="Rectangle_720" data-name="Rectangle 720" class="cls-6" width="22.338" height="12.986" transform="translate(171.071 441.858)"/>
        <rect id="Rectangle_721" data-name="Rectangle 721" class="cls-6" width="22.305" height="12.986" transform="translate(205.555 441.858)"/>
        <rect id="Rectangle_722" data-name="Rectangle 722" class="cls-6" width="71.019" height="12.986" transform="translate(113.24 355.902)"/>
        <rect id="Rectangle_723" data-name="Rectangle 723" class="cls-6" width="27.385" height="12.986" transform="translate(217.733 377.399)"/>
        <rect id="Rectangle_724" data-name="Rectangle 724" class="cls-6" width="94.367" height="12.986" transform="translate(113.24 377.399)"/>
        <rect id="Rectangle_725" data-name="Rectangle 725" class="cls-6" width="50.733" height="12.986" transform="translate(148.733 334.438)"/>
        <rect id="Rectangle_726" data-name="Rectangle 726" class="cls-6" width="50.733" height="12.986" transform="translate(113.24 398.863)"/>
        <rect id="Rectangle_727" data-name="Rectangle 727" class="cls-6" width="22.305" height="12.986" transform="translate(113.24 420.361)"/>
        <rect id="Rectangle_728" data-name="Rectangle 728" class="cls-6" width="22.305" height="12.986" transform="translate(173.09 398.863)"/>
        <rect id="Rectangle_729" data-name="Rectangle 729" class="cls-6" width="50.733" height="12.986" transform="translate(113.24 441.858)"/>
        <rect id="Rectangle_730" data-name="Rectangle 730" class="cls-6" width="50.733" height="12.986" transform="translate(153.813 420.361)"/>
        <rect id="Rectangle_731" data-name="Rectangle 731" class="cls-6" width="103.484" height="12.986" transform="translate(113.24 463.322)"/>
        <rect id="Rectangle_732" data-name="Rectangle 732" class="cls-7" width="28.394" height="12.986" transform="translate(113.24 484.819)"/>
        <rect id="Rectangle_733" data-name="Rectangle 733" class="cls-6" width="88.008" height="12.986" transform="translate(154.082 484.819)"/>
        <rect id="Rectangle_734" data-name="Rectangle 734" class="cls-6" width="22.675" height="12.986" transform="translate(178.809 506.283)"/>
        <rect id="Rectangle_735" data-name="Rectangle 735" class="cls-6" width="55.072" height="12.986" transform="translate(113.24 506.283)"/>
        <rect id="Rectangle_736" data-name="Rectangle 736" class="cls-6" width="77.108" height="12.986" transform="translate(113.24 527.781)"/>
        <rect id="Rectangle_737" data-name="Rectangle 737" class="cls-6" width="53.39" height="12.986" transform="translate(339.653 527.781)"/>
        <rect id="Rectangle_738" data-name="Rectangle 738" class="cls-6" width="22.305" height="12.986" transform="translate(370.705 506.283)"/>
        <rect id="Rectangle_739" data-name="Rectangle 739" class="cls-6" width="50.733" height="12.986" transform="translate(342.31 484.819)"/>
        <rect id="Rectangle_740" data-name="Rectangle 740" class="cls-6" width="30.446" height="12.986" transform="translate(362.597 463.322)"/>
        <rect id="Rectangle_741" data-name="Rectangle 741" class="cls-6" width="60.489" height="12.986" transform="translate(332.521 441.858)"/>
        <rect id="Rectangle_742" data-name="Rectangle 742" class="cls-6" width="77.108" height="12.986" transform="translate(315.935 420.361)"/>
        <rect id="Rectangle_743" data-name="Rectangle 743" class="cls-6" width="22.305" height="12.986" transform="translate(370.705 398.863)"/>
        <rect id="Rectangle_744" data-name="Rectangle 744" class="cls-6" width="41.515" height="12.986" transform="translate(351.529 377.399)"/>
        <rect id="Rectangle_745" data-name="Rectangle 745" class="cls-6" width="50.733" height="12.986" transform="translate(342.31 355.902)"/>
        <rect id="Rectangle_746" data-name="Rectangle 746" class="cls-6" width="50.733" height="12.986" transform="translate(342.31 334.438)"/>
        <rect id="Rectangle_747" data-name="Rectangle 747" class="cls-7" width="22.305" height="12.986" transform="translate(370.705 312.941)"/>
        <rect id="Rectangle_748" data-name="Rectangle 748" class="cls-6" width="50.733" height="12.986" transform="translate(342.31 291.477)"/>
        <rect id="Rectangle_749" data-name="Rectangle 749" class="cls-6" width="60.489" height="12.986" transform="translate(332.521 269.98)"/>
        <rect id="Rectangle_750" data-name="Rectangle 750" class="cls-6" width="28.394" height="12.986" transform="translate(364.615 248.482)"/>
        <rect id="Rectangle_751" data-name="Rectangle 751" class="cls-6" width="55.072" height="12.986" transform="translate(337.971 227.018)"/>
        <rect id="Rectangle_752" data-name="Rectangle 752" class="cls-6" width="45.081" height="12.986" transform="translate(347.962 205.521)"/>
        <g id="Group_8" data-name="Group 8" transform="translate(360.376 388.266)">
          <rect id="Rectangle_753" data-name="Rectangle 753" class="cls-10" width="317.752" height="199.062" rx="1.03"/>
          <rect id="Rectangle_754" data-name="Rectangle 754" class="cls-13" width="317.752" height="186.681" transform="translate(0 12.38)"/>
          <rect id="Rectangle_755" data-name="Rectangle 755" class="cls-7" width="188.027" height="8.007" transform="translate(19.176 28.798)"/>
          <rect id="Rectangle_756" data-name="Rectangle 756" class="cls-7" width="188.027" height="8.007" transform="translate(19.176 42.019)"/>
          <rect id="Rectangle_757" data-name="Rectangle 757" class="cls-7" width="82.726" height="8.007" transform="translate(19.176 55.274)"/>
          <rect id="Rectangle_758" data-name="Rectangle 758" class="cls-7" width="188.027" height="8.007" transform="translate(19.176 68.496)"/>
          <rect id="Rectangle_759" data-name="Rectangle 759" class="cls-7" width="224.26" height="8.007" transform="translate(19.176 81.751)"/>
          <rect id="Rectangle_760" data-name="Rectangle 760" class="cls-7" width="105.3" height="8.007" transform="translate(19.176 94.972)"/>
          <rect id="Rectangle_761" data-name="Rectangle 761" class="cls-7" width="204.108" height="8.007" transform="translate(19.176 108.227)"/>
          <rect id="Rectangle_762" data-name="Rectangle 762" class="cls-7" width="167.101" height="8.007" transform="translate(19.176 121.449)"/>
        </g>
        <rect id="Rectangle_763" data-name="Rectangle 763" class="cls-7" width="3.364" height="301.401" transform="translate(306.751 388.266)"/>
        <path id="Path_2120" data-name="Path 2120" class="cls-14" d="M89.275,461.139l-7.469-7.469-10.934,10.9-10.9-10.9-7.5,7.469,10.9,10.934-10.9,10.9,7.5,7.5,10.9-10.9,10.934,10.9,7.469-7.5-10.9-10.9Z" transform="translate(-17.011 -202.093)"/>
        <g id="Group_9" data-name="Group 9" transform="translate(423.859 247.394)">
          <rect id="Rectangle_764" data-name="Rectangle 764" class="cls-15" width="59.177" height="9.554" transform="translate(26.529 54.469) rotate(-66.99)"/>
          <path id="Path_2121" data-name="Path 2121" class="cls-16" d="M186.457,455.54,167.92,474.111l18.537,18.5,6.762-6.728-11.775-11.775L193.219,462.3Z" transform="translate(-167.92 -445.065)"/>
          <path id="Path_2122" data-name="Path 2122" class="cls-17" d="M192.412,455.54,185.65,462.3l11.775,11.808L185.65,485.885l6.762,6.728,18.537-18.5Z" transform="translate(-126.002 -445.065)"/>
        </g>
        <path id="Path_2123" data-name="Path 2123" class="cls-18" d="M746.005,652.22a7.1,7.1,0,0,1-5.955,8.276L61.384,663.019a6.022,6.022,0,0,1-5.282-8.175" transform="translate(-9.373 267.325)"/>
        <path id="Path_2124" data-name="Path 2124" class="cls-10" d="M739.762,750.286,61.1,752.809c-4.273,0-6.358-2.422-4.71-5.416l72.331-130.9a10.363,10.363,0,0,1,8.444-3.768H698.786a7.7,7.7,0,0,1,7.3,3.7l39.462,128.513C746.457,747.864,743.867,750.286,739.762,750.286Z" transform="translate(-9.085 173.868)"/>
        <path id="Path_2125" data-name="Path 2125" class="cls-19" d="M61.85,723.591l442.666-1.48L502.06,619.67l-384.969.235Z" transform="translate(5.165 190.369)"/>
        <path id="Path_2126" data-name="Path 2126" class="cls-20" d="M235.161,721.812l106.175-.337-29.3-101.835-92.584.034Z" transform="translate(377.768 190.298)"/>
        <path id="Path_2127" data-name="Path 2127" class="cls-21" d="M197.108,673.918l84.106-.3-4.777-33.575-80.506.2Z" transform="translate(322.162 238.529)"/>
        <path id="Path_2128" data-name="Path 2128" class="cls-22" d="M196.435,654.133,273.341,654l-4.878-34.349-73.273.067Z" transform="translate(320.412 190.322)"/>
        <path id="Path_2129" data-name="Path 2129" class="cls-23" d="M79.3,625.423l381.369-.168L460.4,614.59l-375.347.067Z" transform="translate(46.421 178.359)"/>
        <path id="Path_2130" data-name="Path 2130" class="cls-24" d="M195.38,625.278l72.6-.034-1.514-10.665-71.456.034Z" transform="translate(319.986 178.336)"/>
        <path id="Path_2131" data-name="Path 2131" class="cls-7" d="M730.274,753.662h0l-668.3-2.826a6.9,6.9,0,0,1-6.224-2.86,4.911,4.911,0,0,1,.2-5.012l72.365-128.245a11.674,11.674,0,0,1,9.824-4.508l553.012,4.306a9.016,9.016,0,0,1,8.781,4.912l37.646,126.865a5.113,5.113,0,0,1-.807,4.643,7.972,7.972,0,0,1-6.493,2.725Zm0-3.364a5.147,5.147,0,0,0,3.9-1.413,1.748,1.748,0,0,0,.269-1.648L696.732,620.371a6.291,6.291,0,0,0-5.551-2.49L138.1,613.609a8.176,8.176,0,0,0-6.728,2.792L58.841,744.746a1.783,1.783,0,0,0-.2,1.682c.336.572,1.379,1.177,3.364,1.177Z" transform="translate(-10.665 167.97)"/>
        <path id="Path_2132" data-name="Path 2132" class="cls-25" d="M122.991,678.809c-4.441-16.821-13.221-41.111-2.456-49.824s19.546-8.781,24.222-5.349,6.19,16.35,7.8,26.914,4,23.919,0,29.067C149.737,683.485,126.759,693.141,122.991,678.809Z" transform="translate(131.748 194.747)"/>
        <path id="Path_2133" data-name="Path 2133" class="cls-25" d="M114.4,673.319c-4.441-16.821-13.221-41.111-2.456-49.824s19.546-8.781,24.189-5.349,6.19,16.35,7.805,26.914,5.383,22.877,3.1,27.183S118.136,687.651,114.4,673.319Z" transform="translate(111.439 181.767)"/>
        <path id="Path_2134" data-name="Path 2134" class="cls-26" d="M230.375,732.826c-39.025,27.721-56.553,49.32-66.511,75.056H48c21.968-32.566,43.466-61.767,50.463-74.013C152.291,638.93,158.212,614.4,252.983,627.66,334.8,638.964,262.1,710.251,230.375,732.826Z" transform="translate(-27.579 201.388)"/>
        <path id="Path_2135" data-name="Path 2135" class="cls-26" d="M109.348,674.623c10.7-21.733,24.391-54.871,38.419-54.4s19.849,8.242,20.185,15.947-6.493,25.635-13.928,38.15-17.46,25.77-22.406,28.26S100.164,693.025,109.348,674.623Z" transform="translate(112.927 191.666)"/>
        <path id="Path_2136" data-name="Path 2136" class="cls-26" d="M100.468,669.658c10.6-21.8,24.088-55.039,38.117-54.635s20.185,5.349,20.488,13.053-9.184,25.467-16.552,38.049-14.7,28.865-19.647,31.355S91.485,688.127,100.468,669.658Z" transform="translate(92.101 179.373)"/>
        <path id="Path_2137" data-name="Path 2137" class="cls-26" d="M89.649,674.23c9.151-22.473,20.488-56.586,34.551-57.192s20.455,3.869,21.3,11.539-7.5,26.039-14.062,39.093-12.818,29.841-17.595,32.667S81.911,693.2,89.649,674.23Z" transform="translate(67.629 184.018)"/>
        <path id="Path_2138" data-name="Path 2138" class="cls-26" d="M79.293,672.253c11.909-21.161,27.452-53.559,41.481-52.381S140.59,626.3,140.455,634s-10.732,24.9-18.873,37.006-16.485,27.957-21.565,30.278S69.2,690.151,79.293,672.253Z" transform="translate(40.911 190.773)"/>
        <path id="Path_2139" data-name="Path 2139" class="cls-26" d="M160.123,637.45c-11.64,23.55-7.166,26.712,5.854,24.223,20.993-4.071,21.531-8.814,41.38-8.982,17.494,0,30.278-1.211,30.917,17.763.437,15.913-35.123,8.545-62.844,28.495s-87.47,13.457-87.47,13.457Z" transform="translate(66.896 232.406)"/>
        <path id="Path_2140" data-name="Path 2140" class="cls-25" d="M213.464,663.164c6.157-14.13,17.225-34.483,8.04-40.573s-17.46-5.349-22.271-2.187S191.5,634.2,188.771,642.912s-7.031,19.849-4.407,23.987C189.511,675.175,208.25,675.175,213.464,663.164Z" transform="translate(292.886 186.438)"/>
        <path id="Path_2141" data-name="Path 2141" class="cls-25" d="M225.968,676.533c6.426-16.316,18-39.26,8.31-49.185s-18.4-11-23.55-8.175-8.074,15.509-10.934,25.8-8.04,22.1-6.257,26.611S220.551,690.327,225.968,676.533Z" transform="translate(315.64 185.988)"/>
        <path id="Path_2142" data-name="Path 2142" class="cls-25" d="M235.988,672.053c6.426-16.316,18-39.26,8.31-49.185s-18.4-11-23.55-8.175-8.074,15.509-10.934,25.8-8.041,22.1-6.258,26.611S230.571,685.847,235.988,672.053Z" transform="translate(339.33 175.396)"/>
        <path id="Path_2143" data-name="Path 2143" class="cls-26" d="M404.374,809.092H297.661c-7.368-24.929-22.507-47.57-56.014-77.949-28.831-26.174-92.584-105.536-10.093-107.218,95.679-1.985,98.673,23.079,140.894,123.7C376.989,758.461,389.807,781.741,404.374,809.092Z" transform="translate(310.189 200.177)"/>
        <path id="Path_2144" data-name="Path 2144" class="cls-26" d="M240.477,676.224c-8.074-22.843-17.729-57.394-31.758-58.538s-20.69,5.854-21.9,13.457,3.364,26.241,9.319,39.53,14.3,27.654,18.907,30.682S247.306,695.535,240.477,676.224Z" transform="translate(300.155 185.389)"/>
        <path id="Path_2145" data-name="Path 2145" class="cls-26" d="M250.548,676.093c-7.94-22.91-17.393-57.495-31.422-58.74s-20.623,2.927-21.867,10.564,6.089,26.376,11.943,39.731,11.2,30.278,15.812,33.441S257.276,695.47,250.548,676.093Z" transform="translate(324.971 184.377)"/>
        <path id="Path_2146" data-name="Path 2146" class="cls-26" d="M257.254,674.342c-6.459-23.55-13.659-58.6-27.553-60.893s-20.757,1.447-22.507,8.915,4.373,26.914,9.353,40.371,9.218,31.119,13.457,34.517S262.7,694.258,257.254,674.342Z" transform="translate(348.072 174.083)"/>
        <path id="Path_2147" data-name="Path 2147" class="cls-26" d="M270.594,676.285c-7.973-22.944-17.46-57.562-31.489-58.941s-20.623,2.792-21.867,10.4,6.123,26.409,11.977,39.765,11.237,30.446,15.846,33.642S277.323,695.663,270.594,676.285Z" transform="translate(372.209 184.251)"/>
        <path id="Path_2148" data-name="Path 2148" class="cls-26" d="M251.46,635.34c11.842,23.314,7.4,26.645-5.618,24.256-21.026-3.869-21.632-8.612-41.481-8.646-17.494,0-30.278-.942-30.749,18.032-.3,15.913,35.19,8.242,63.079,27.957s87.47,12.851,87.47,12.851Z" transform="translate(269.391 227.417)"/>
        <path id="Path_2149" data-name="Path 2149" class="cls-27" d="M41.94,750.962s18.369-24.492,36.6-49.185,33.642-60.354,89.085-52.179c56.687,8.343,78.858,35.257,71.961,50.094-15.846,34.147-18.772,51.3-18.772,51.3Z" transform="translate(-41.906 258.307)"/>
        <path id="Path_2150" data-name="Path 2150" class="cls-28" d="M397.714,751.474A382.468,382.468,0,0,0,367.2,702.289c-18.234-24.694-38.319-59.513-95.241-53.39s-67.688,38.554-60.792,53.39c15.846,34.147,13.726,49.219,13.726,49.219Z" transform="translate(353.822 257.795)"/>
        <g id="Group_10" data-name="Group 10" class="cls-29" transform="translate(0 794.594)">
          <path id="Path_2151" data-name="Path 2151" class="cls-30" d="M29.86,835.149C77.8,761.136,157.7,645.1,212.37,645.07s89.825,11.337,82.356,51.1,7.5,12.851,29.033,25.366,15.812,15.206-5.719,38.756-16.821,73.172-33.44,90.834S29.86,835.149,29.86,835.149Z" transform="translate(-70.466 -544.173)"/>
          <path id="Path_2152" data-name="Path 2152" class="cls-31" d="M256.724,579.86,0,913.02H932.8L790.7,579.86" transform="translate(-141.062 -698.345)"/>
        </g>
        <g id="Group_11" data-name="Group 11" class="cls-32" transform="translate(443.202 786.898)">
          <path id="Path_2154" data-name="Path 2154" class="cls-30" d="M498.326,836.659c-47.94-74.013-127.841-190.045-182.51-190.079s-89.825,11.337-82.356,51.1-7.5,12.852-29.033,25.366-15.812,15.206,5.719,38.756,16.821,73.172,33.44,90.834S498.326,836.659,498.326,836.659Z" transform="translate(-133.036 -532.907)"/>
          <path id="Path_2155" data-name="Path 2155" class="cls-31" d="M256.724,579.86,0,913.02H932.8L790.7,579.86" transform="translate(-584.264 -690.649)"/>
        </g>
        <rect id="Rectangle_765" data-name="Rectangle 765" class="cls-7" width="11.876" height="6.796" transform="translate(157.042 800.014)"/>
        <rect id="Rectangle_766" data-name="Rectangle 766" class="cls-7" width="5.215" height="6.796" transform="translate(157.042 788.777)"/>
        <rect id="Rectangle_767" data-name="Rectangle 767" class="cls-7" width="10.698" height="6.796" transform="translate(164.275 788.777)"/>
        <rect id="Rectangle_768" data-name="Rectangle 768" class="cls-7" width="11.876" height="6.796" transform="translate(287.945 825.38)"/>
        <rect id="Rectangle_769" data-name="Rectangle 769" class="cls-7" width="5.215" height="6.796" transform="translate(287.945 814.11)"/>
        <rect id="Rectangle_770" data-name="Rectangle 770" class="cls-7" width="5.215" height="6.796" transform="translate(302.108 825.38)"/>
        <rect id="Rectangle_771" data-name="Rectangle 771" class="cls-7" width="11.876" height="6.796" transform="translate(287.945 802.874)"/>
        <rect id="Rectangle_772" data-name="Rectangle 772" class="cls-7" width="14.163" height="6.796" transform="translate(287.945 791.637)"/>
        <rect id="Rectangle_773" data-name="Rectangle 773" class="cls-7" width="9.756" height="6.796" transform="translate(465.98 826.188)"/>
        <rect id="Rectangle_774" data-name="Rectangle 774" class="cls-7" width="11.876" height="6.796" transform="translate(463.86 814.918)"/>
        <rect id="Rectangle_775" data-name="Rectangle 775" class="cls-7" width="7.839" height="6.796" transform="translate(452.994 814.918)"/>
        <rect id="Rectangle_776" data-name="Rectangle 776" class="cls-7" width="18.234" height="6.796" transform="translate(457.502 803.681)"/>
        <path id="Path_2157" data-name="Path 2157" class="cls-33" d="M243.3,602.61h-5.315v7.7h-7.7v5.315h7.7v7.7H243.3v-7.7H251v-5.315h-7.7Z" transform="translate(403.373 150.036)"/>
      </g>
    </g>
  </g>
</svg>
